<svg xmlns="http://www.w3.org/2000/svg" width="880" height="202" viewBox="0 0 880 202" role="img" aria-label="BFME 2 progress over time">
  <style>
    .card { fill: #0d1117; stroke: #30363d; } .muted { fill: #8b949e; } .grid { stroke: #30363d; }
    .axis { fill: #8b949e; font-size: 12px; } .rest { fill: #30363d; } .edge { stroke: #0d1117; }
    .hit { fill: transparent; }
    @media (prefers-color-scheme: light) {
      .card { fill: #ffffff; stroke: #d0d7de; } .muted { fill: #59636e; } .grid { stroke: #d0d7de; }
      .axis { fill: #59636e; } .rest { fill: #d0d7de; } .edge { stroke: #ffffff; }
    }
  </style>
  <defs><pattern id="dots" width="5" height="5" patternUnits="userSpaceOnUse"><rect width="5" height="5" fill="#56d364"/><circle cx="2.5" cy="2.5" r="1.1" fill="#196c2e"/></pattern></defs>
  <rect class="card" x="0.5" y="0.5" width="879" height="201" rx="12"/>
  <g font-family="-apple-system,BlinkMacSystemFont,'Segoe UI','Noto Sans',Helvetica,Arial,sans-serif">
    <text x="28" y="29" class="muted" font-size="13" font-weight="600" letter-spacing="1.3">BFME 2 · OVER TIME</text>
    <rect x="200" y="20" width="10" height="10" rx="2" fill="#2ea043"/><text x="216" y="29" class="muted" font-size="12.5">byte-matched, daily</text><rect x="360" y="20" width="10" height="10" rx="2" fill="url(#dots)"/><text x="376" y="29" class="muted" font-size="12.5">linking, per census</text>
<svg x="28" y="44" width="824" height="144" viewBox="0 0 1100 190" role="img" aria-label="progress over time"><line x1="40" x2="1092" y1="166.0" y2="166.0" class="grid"/><text x="32" y="170.0" class="axis" text-anchor="end">0%</text><line x1="40" x2="1092" y1="127.0" y2="127.0" class="grid"/><text x="32" y="131.0" class="axis" text-anchor="end">25%</text><line x1="40" x2="1092" y1="88.0" y2="88.0" class="grid"/><text x="32" y="92.0" class="axis" text-anchor="end">50%</text><line x1="40" x2="1092" y1="49.0" y2="49.0" class="grid"/><text x="32" y="53.0" class="axis" text-anchor="end">75%</text><line x1="40" x2="1092" y1="10.0" y2="10.0" class="grid"/><text x="32" y="14.0" class="axis" text-anchor="end">100%</text><text x="117.0" y="182" class="axis">Sep</text><text x="886.7" y="182" class="axis">Oct</text><polygon points="40.0,166.0 40.0,165.0 65.7,164.0 91.3,163.7 117.0,163.6 142.6,163.5 168.3,162.4 194.0,161.8 219.6,161.2 245.3,160.1 270.9,156.6 296.6,152.9 322.2,152.8 347.9,152.4 373.6,152.1 399.2,151.7 424.9,150.3 450.5,148.9 476.2,148.4 501.9,148.3 527.5,147.6 553.2,144.7 578.8,142.8 604.5,140.8 630.1,139.1 655.8,136.2 681.5,128.3 707.1,125.7 732.8,124.8 758.4,123.2 784.1,120.5 809.8,118.5 835.4,116.7 861.1,113.6 886.7,110.7 912.4,107.3 938.0,105.0 963.7,100.3 989.4,88.9 1015.0,84.5 1040.7,75.1 1066.3,67.9 1092.0,55.6 1092.0,166.0" fill="#2ea043" opacity="0.14"/><polyline points="40.0,165.0 65.7,164.0 91.3,163.7 117.0,163.6 142.6,163.5 168.3,162.4 194.0,161.8 219.6,161.2 245.3,160.1 270.9,156.6 296.6,152.9 322.2,152.8 347.9,152.4 373.6,152.1 399.2,151.7 424.9,150.3 450.5,148.9 476.2,148.4 501.9,148.3 527.5,147.6 553.2,144.7 578.8,142.8 604.5,140.8 630.1,139.1 655.8,136.2 681.5,128.3 707.1,125.7 732.8,124.8 758.4,123.2 784.1,120.5 809.8,118.5 835.4,116.7 861.1,113.6 886.7,110.7 912.4,107.3 938.0,105.0 963.7,100.3 989.4,88.9 1015.0,84.5 1040.7,75.1 1066.3,67.9 1092.0,55.6" fill="none" stroke="#2ea043" stroke-width="2.5" stroke-linejoin="round"/><polyline points="835.4,154.3 861.1,152.2 861.1,150.4 861.1,149.4 861.1,149.0 861.1,148.8 886.7,148.6 886.7,147.3 886.7,146.8 886.7,146.5 886.7,146.4 886.7,145.5 886.7,145.3 886.7,144.7 886.7,144.6 886.7,143.9 886.7,143.5 886.7,143.2 886.7,142.8 886.7,142.2 886.7,142.1 912.4,139.9 912.4,138.2" fill="none" stroke="#56d364" stroke-width="2.5" stroke-dasharray="0.1 6" stroke-linecap="round"/><polyline points="912.4,149.5 912.4,145.4 912.4,144.4 938.0,143.0 938.0,142.5 938.0,142.2 963.7,142.0 963.7,141.3 963.7,140.8 963.7,140.2 963.7,140.2 963.7,140.1 989.4,138.4 989.4,135.7 989.4,135.0 1015.0,134.4 1015.0,133.4 1015.0,133.4 1015.0,132.6 1015.0,131.7 1040.7,130.8 1040.7,130.0 1040.7,129.5 1040.7,127.9 1066.3,128.0 1066.3,127.2 1066.3,126.7 1066.3,127.2 1092.0,123.1 1092.0,122.5 1092.0,121.8 1092.0,121.3" fill="none" stroke="#56d364" stroke-width="2.5" stroke-dasharray="0.1 6" stroke-linecap="round"/><line x1="912.4" x2="912.4" y1="10" y2="166" class="grid" stroke-dasharray="4 4"><title>2026-10-02: census rules changed majority-0 -> retail-truth-1 (10.59% under retail-truth-1, 17.83% under majority-0, same objects): not progress</title></line><text x="916.4" y="22" class="axis">rules changed</text><circle cx="912.4" cy="138.2" r="4" fill="none" stroke="#56d364"><title>2026-10-02: linking under majority-0, 17.83% under majority-0</title></circle><circle cx="835.4" cy="154.3" r="4" fill="#56d364"><title>2026-09-29: linking 7.50% (majority-0)</title></circle><circle cx="861.1" cy="152.2" r="4" fill="#56d364"><title>2026-09-30: linking 8.84% (majority-0)</title></circle><circle cx="861.1" cy="150.4" r="4" fill="#56d364"><title>2026-09-30: linking 10.02% (majority-0)</title></circle><circle cx="861.1" cy="149.4" r="4" fill="#56d364"><title>2026-09-30: linking 10.62% (majority-0)</title></circle><circle cx="861.1" cy="149.0" r="4" fill="#56d364"><title>2026-09-30: linking 10.91% (majority-0)</title></circle><circle cx="861.1" cy="148.8" r="4" fill="#56d364"><title>2026-09-30: linking 11.02% (majority-0)</title></circle><circle cx="886.7" cy="148.6" r="4" fill="#56d364"><title>2026-10-01: linking 11.18% (majority-0)</title></circle><circle cx="886.7" cy="147.3" r="4" fill="#56d364"><title>2026-10-01: linking 12.01% (majority-0)</title></circle><circle cx="886.7" cy="146.8" r="4" fill="#56d364"><title>2026-10-01: linking 12.28% (majority-0)</title></circle><circle cx="886.7" cy="146.5" r="4" fill="#56d364"><title>2026-10-01: linking 12.53% (majority-0)</title></circle><circle cx="886.7" cy="146.4" r="4" fill="#56d364"><title>2026-10-01: linking 12.59% (majority-0)</title></circle><circle cx="886.7" cy="145.5" r="4" fill="#56d364"><title>2026-10-01: linking 13.14% (majority-0)</title></circle><circle cx="886.7" cy="145.3" r="4" fill="#56d364"><title>2026-10-01: linking 13.28% (majority-0)</title></circle><circle cx="886.7" cy="144.7" r="4" fill="#56d364"><title>2026-10-01: linking 13.63% (majority-0)</title></circle><circle cx="886.7" cy="144.6" r="4" fill="#56d364"><title>2026-10-01: linking 13.74% (majority-0)</title></circle><circle cx="886.7" cy="143.9" r="4" fill="#56d364"><title>2026-10-01: linking 14.20% (majority-0)</title></circle><circle cx="886.7" cy="143.5" r="4" fill="#56d364"><title>2026-10-01: linking 14.44% (majority-0)</title></circle><circle cx="886.7" cy="143.2" r="4" fill="#56d364"><title>2026-10-01: linking 14.64% (majority-0)</title></circle><circle cx="886.7" cy="142.8" r="4" fill="#56d364"><title>2026-10-01: linking 14.87% (majority-0)</title></circle><circle cx="886.7" cy="142.2" r="4" fill="#56d364"><title>2026-10-01: linking 15.23% (majority-0)</title></circle><circle cx="886.7" cy="142.1" r="4" fill="#56d364"><title>2026-10-01: linking 15.33% (majority-0)</title></circle><circle cx="912.4" cy="139.9" r="4" fill="#56d364"><title>2026-10-02: linking 16.72% (majority-0)</title></circle><circle cx="912.4" cy="149.5" r="4" fill="#56d364"><title>2026-10-02: linking 10.59% (retail-truth-1)</title></circle><circle cx="912.4" cy="145.4" r="4" fill="#56d364"><title>2026-10-02: linking 13.23% (retail-truth-1)</title></circle><circle cx="912.4" cy="144.4" r="4" fill="#56d364"><title>2026-10-02: linking 13.86% (retail-truth-1)</title></circle><circle cx="938.0" cy="143.0" r="4" fill="#56d364"><title>2026-10-03: linking 14.71% (retail-truth-1)</title></circle><circle cx="938.0" cy="142.5" r="4" fill="#56d364"><title>2026-10-03: linking 15.06% (retail-truth-1)</title></circle><circle cx="938.0" cy="142.2" r="4" fill="#56d364"><title>2026-10-03: linking 15.24% (retail-truth-1)</title></circle><circle cx="963.7" cy="142.0" r="4" fill="#56d364"><title>2026-10-04: linking 15.38% (retail-truth-1)</title></circle><circle cx="963.7" cy="141.3" r="4" fill="#56d364"><title>2026-10-04: linking 15.84% (retail-truth-1)</title></circle><circle cx="963.7" cy="140.8" r="4" fill="#56d364"><title>2026-10-04: linking 16.15% (retail-truth-1)</title></circle><circle cx="963.7" cy="140.2" r="4" fill="#56d364"><title>2026-10-04: linking 16.52% (retail-truth-1)</title></circle><circle cx="963.7" cy="140.2" r="4" fill="#56d364"><title>2026-10-04: linking 16.53% (retail-truth-1)</title></circle><circle cx="963.7" cy="140.1" r="4" fill="#56d364"><title>2026-10-04: linking 16.58% (retail-truth-1)</title></circle><circle cx="989.4" cy="138.4" r="4" fill="#56d364"><title>2026-10-05: linking 17.70% (retail-truth-1)</title></circle><circle cx="989.4" cy="135.7" r="4" fill="#56d364"><title>2026-10-05: linking 19.45% (retail-truth-1)</title></circle><circle cx="989.4" cy="135.0" r="4" fill="#56d364"><title>2026-10-05: linking 19.84% (retail-truth-1)</title></circle><circle cx="1015.0" cy="134.4" r="4" fill="#56d364"><title>2026-10-06: linking 20.27% (retail-truth-1)</title></circle><circle cx="1015.0" cy="133.4" r="4" fill="#56d364"><title>2026-10-06: linking 20.91% (retail-truth-1)</title></circle><circle cx="1015.0" cy="133.4" r="4" fill="#56d364"><title>2026-10-06: linking 20.91% (retail-truth-1)</title></circle><circle cx="1015.0" cy="132.6" r="4" fill="#56d364"><title>2026-10-06: linking 21.41% (retail-truth-1)</title></circle><circle cx="1015.0" cy="131.7" r="4" fill="#56d364"><title>2026-10-06: linking 22.00% (retail-truth-1)</title></circle><circle cx="1040.7" cy="130.8" r="4" fill="#56d364"><title>2026-10-07: linking 22.59% (retail-truth-1)</title></circle><circle cx="1040.7" cy="130.0" r="4" fill="#56d364"><title>2026-10-07: linking 23.07% (retail-truth-1)</title></circle><circle cx="1040.7" cy="129.5" r="4" fill="#56d364"><title>2026-10-07: linking 23.38% (retail-truth-1)</title></circle><circle cx="1040.7" cy="127.9" r="4" fill="#56d364"><title>2026-10-07: linking 24.45% (retail-truth-1)</title></circle><circle cx="1066.3" cy="128.0" r="4" fill="#56d364"><title>2026-10-08: linking 24.36% (retail-truth-1)</title></circle><circle cx="1066.3" cy="127.2" r="4" fill="#56d364"><title>2026-10-08: linking 24.88% (retail-truth-1)</title></circle><circle cx="1066.3" cy="126.7" r="4" fill="#56d364"><title>2026-10-08: linking 25.18% (retail-truth-1)</title></circle><circle cx="1066.3" cy="127.2" r="4" fill="#56d364"><title>2026-10-08: linking 24.85% (retail-truth-1)</title></circle><circle cx="1092.0" cy="123.1" r="4" fill="#56d364"><title>2026-10-09: linking 27.53% (retail-truth-1)</title></circle><circle cx="1092.0" cy="122.5" r="4" fill="#56d364"><title>2026-10-09: linking 27.91% (retail-truth-1)</title></circle><circle cx="1092.0" cy="121.8" r="4" fill="#56d364"><title>2026-10-09: linking 28.35% (retail-truth-1)</title></circle><circle cx="1092.0" cy="121.3" r="4" fill="#56d364"><title>2026-10-09: linking 28.64% (retail-truth-1)</title></circle><circle cx="40.0" cy="165.0" r="7" class="hit"><title>2026-08-29: byte-matched 0.66%</title></circle><circle cx="65.7" cy="164.0" r="7" class="hit"><title>2026-08-30: byte-matched 1.27%</title></circle><circle cx="91.3" cy="163.7" r="7" class="hit"><title>2026-08-31: byte-matched 1.47%</title></circle><circle cx="117.0" cy="163.6" r="7" class="hit"><title>2026-09-01: byte-matched 1.54%</title></circle><circle cx="142.6" cy="163.5" r="7" class="hit"><title>2026-09-02: byte-matched 1.60%</title></circle><circle cx="168.3" cy="162.4" r="7" class="hit"><title>2026-09-03: byte-matched 2.30%</title></circle><circle cx="194.0" cy="161.8" r="7" class="hit"><title>2026-09-04: byte-matched 2.70%</title></circle><circle cx="219.6" cy="161.2" r="7" class="hit"><title>2026-09-05: byte-matched 3.08%</title></circle><circle cx="245.3" cy="160.1" r="7" class="hit"><title>2026-09-06: byte-matched 3.81%</title></circle><circle cx="270.9" cy="156.6" r="7" class="hit"><title>2026-09-07: byte-matched 6.00%</title></circle><circle cx="296.6" cy="152.9" r="7" class="hit"><title>2026-09-08: byte-matched 8.43%</title></circle><circle cx="322.2" cy="152.8" r="7" class="hit"><title>2026-09-09: byte-matched 8.46%</title></circle><circle cx="347.9" cy="152.4" r="7" class="hit"><title>2026-09-10: byte-matched 8.72%</title></circle><circle cx="373.6" cy="152.1" r="7" class="hit"><title>2026-09-11: byte-matched 8.93%</title></circle><circle cx="399.2" cy="151.7" r="7" class="hit"><title>2026-09-12: byte-matched 9.18%</title></circle><circle cx="424.9" cy="150.3" r="7" class="hit"><title>2026-09-13: byte-matched 10.04%</title></circle><circle cx="450.5" cy="148.9" r="7" class="hit"><title>2026-09-14: byte-matched 10.96%</title></circle><circle cx="476.2" cy="148.4" r="7" class="hit"><title>2026-09-15: byte-matched 11.25%</title></circle><circle cx="501.9" cy="148.3" r="7" class="hit"><title>2026-09-16: byte-matched 11.34%</title></circle><circle cx="527.5" cy="147.6" r="7" class="hit"><title>2026-09-17: byte-matched 11.79%</title></circle><circle cx="553.2" cy="144.7" r="7" class="hit"><title>2026-09-18: byte-matched 13.67%</title></circle><circle cx="578.8" cy="142.8" r="7" class="hit"><title>2026-09-19: byte-matched 14.90%</title></circle><circle cx="604.5" cy="140.8" r="7" class="hit"><title>2026-09-20: byte-matched 16.12%</title></circle><circle cx="630.1" cy="139.1" r="7" class="hit"><title>2026-09-21: byte-matched 17.23%</title></circle><circle cx="655.8" cy="136.2" r="7" class="hit"><title>2026-09-22: byte-matched 19.07%</title></circle><circle cx="681.5" cy="128.3" r="7" class="hit"><title>2026-09-23: byte-matched 24.14%</title></circle><circle cx="707.1" cy="125.7" r="7" class="hit"><title>2026-09-24: byte-matched 25.81%</title></circle><circle cx="732.8" cy="124.8" r="7" class="hit"><title>2026-09-25: byte-matched 26.39%</title></circle><circle cx="758.4" cy="123.2" r="7" class="hit"><title>2026-09-26: byte-matched 27.42%</title></circle><circle cx="784.1" cy="120.5" r="7" class="hit"><title>2026-09-27: byte-matched 29.16%</title></circle><circle cx="809.8" cy="118.5" r="7" class="hit"><title>2026-09-28: byte-matched 30.47%</title></circle><circle cx="835.4" cy="116.7" r="7" class="hit"><title>2026-09-29: byte-matched 31.60%</title></circle><circle cx="861.1" cy="113.6" r="7" class="hit"><title>2026-09-30: byte-matched 33.57%</title></circle><circle cx="886.7" cy="110.7" r="7" class="hit"><title>2026-10-01: byte-matched 35.43%</title></circle><circle cx="912.4" cy="107.3" r="7" class="hit"><title>2026-10-02: byte-matched 37.62%</title></circle><circle cx="938.0" cy="105.0" r="7" class="hit"><title>2026-10-03: byte-matched 39.12%</title></circle><circle cx="963.7" cy="100.3" r="7" class="hit"><title>2026-10-04: byte-matched 42.14%</title></circle><circle cx="989.4" cy="88.9" r="7" class="hit"><title>2026-10-05: byte-matched 49.40%</title></circle><circle cx="1015.0" cy="84.5" r="7" class="hit"><title>2026-10-06: byte-matched 52.23%</title></circle><circle cx="1040.7" cy="75.1" r="7" class="hit"><title>2026-10-07: byte-matched 58.26%</title></circle><circle cx="1066.3" cy="67.9" r="7" class="hit"><title>2026-10-08: byte-matched 62.88%</title></circle><circle cx="1092.0" cy="55.6" r="7" class="hit"><title>2026-10-09: byte-matched 70.79%</title></circle></svg>
  </g>
</svg>
