<svg xmlns="http://www.w3.org/2000/svg" width="880" height="202" viewBox="0 0 880 202" role="img" aria-label="BFME 2 progress over time">
  <style>
    .card { fill: #0d1117; stroke: #30363d; } .muted { fill: #8b949e; } .grid { stroke: #30363d; }
    .axis { fill: #8b949e; font-size: 12px; } .rest { fill: #30363d; } .edge { stroke: #0d1117; }
    .hit { fill: transparent; }
    @media (prefers-color-scheme: light) {
      .card { fill: #ffffff; stroke: #d0d7de; } .muted { fill: #59636e; } .grid { stroke: #d0d7de; }
      .axis { fill: #59636e; } .rest { fill: #d0d7de; } .edge { stroke: #ffffff; }
    }
  </style>
  <defs><pattern id="dots" width="5" height="5" patternUnits="userSpaceOnUse"><rect width="5" height="5" fill="#56d364"/><circle cx="2.5" cy="2.5" r="1.1" fill="#196c2e"/></pattern></defs>
  <rect class="card" x="0.5" y="0.5" width="879" height="201" rx="12"/>
  <g font-family="-apple-system,BlinkMacSystemFont,'Segoe UI','Noto Sans',Helvetica,Arial,sans-serif">
    <text x="28" y="29" class="muted" font-size="13" font-weight="600" letter-spacing="1.3">BFME 2 · OVER TIME</text>
    <rect x="200" y="20" width="10" height="10" rx="2" fill="#2ea043"/><text x="216" y="29" class="muted" font-size="12.5">byte-matched, daily</text><rect x="360" y="20" width="10" height="10" rx="2" fill="url(#dots)"/><text x="376" y="29" class="muted" font-size="12.5">linking, per census</text>
<svg x="28" y="44" width="824" height="144" viewBox="0 0 1100 190" role="img" aria-label="progress over time"><line x1="40" x2="1092" y1="166.0" y2="166.0" class="grid"/><text x="32" y="170.0" class="axis" text-anchor="end">0%</text><line x1="40" x2="1092" y1="127.0" y2="127.0" class="grid"/><text x="32" y="131.0" class="axis" text-anchor="end">25%</text><line x1="40" x2="1092" y1="88.0" y2="88.0" class="grid"/><text x="32" y="92.0" class="axis" text-anchor="end">50%</text><line x1="40" x2="1092" y1="49.0" y2="49.0" class="grid"/><text x="32" y="53.0" class="axis" text-anchor="end">75%</text><line x1="40" x2="1092" y1="10.0" y2="10.0" class="grid"/><text x="32" y="14.0" class="axis" text-anchor="end">100%</text><text x="118.9" y="182" class="axis">Sep</text><text x="907.9" y="182" class="axis">Oct</text><polygon points="40.0,166.0 40.0,165.0 66.3,164.0 92.6,163.7 118.9,163.6 145.2,163.5 171.5,162.4 197.8,161.8 224.1,161.2 250.4,160.1 276.7,156.6 303.0,152.9 329.3,152.8 355.6,152.4 381.9,152.1 408.2,151.7 434.5,150.3 460.8,148.9 487.1,148.4 513.4,148.3 539.7,147.6 566.0,144.7 592.3,142.8 618.6,140.8 644.9,139.1 671.2,136.2 697.5,128.3 723.8,125.7 750.1,124.8 776.4,123.2 802.7,120.5 829.0,118.5 855.3,116.7 881.6,113.6 907.9,110.7 934.2,107.3 960.5,105.0 986.8,100.3 1013.1,88.9 1039.4,84.5 1065.7,75.1 1092.0,67.9 1092.0,166.0" fill="#2ea043" opacity="0.14"/><polyline points="40.0,165.0 66.3,164.0 92.6,163.7 118.9,163.6 145.2,163.5 171.5,162.4 197.8,161.8 224.1,161.2 250.4,160.1 276.7,156.6 303.0,152.9 329.3,152.8 355.6,152.4 381.9,152.1 408.2,151.7 434.5,150.3 460.8,148.9 487.1,148.4 513.4,148.3 539.7,147.6 566.0,144.7 592.3,142.8 618.6,140.8 644.9,139.1 671.2,136.2 697.5,128.3 723.8,125.7 750.1,124.8 776.4,123.2 802.7,120.5 829.0,118.5 855.3,116.7 881.6,113.6 907.9,110.7 934.2,107.3 960.5,105.0 986.8,100.3 1013.1,88.9 1039.4,84.5 1065.7,75.1 1092.0,67.9" fill="none" stroke="#2ea043" stroke-width="2.5" stroke-linejoin="round"/><polyline points="855.3,154.3 881.6,152.2 881.6,150.4 881.6,149.4 881.6,149.0 881.6,148.8 907.9,148.6 907.9,147.3 907.9,146.8 907.9,146.5 907.9,146.4 907.9,145.5 907.9,145.3 907.9,144.7 907.9,144.6 907.9,143.9 907.9,143.5 907.9,143.2 907.9,142.8 907.9,142.2 907.9,142.1 934.2,139.9 934.2,138.2" fill="none" stroke="#56d364" stroke-width="2.5" stroke-dasharray="0.1 6" stroke-linecap="round"/><polyline points="934.2,149.5 934.2,145.4 934.2,144.4 960.5,143.0 960.5,142.5 960.5,142.2 986.8,142.0 986.8,141.3 986.8,140.8 986.8,140.2 986.8,140.2 986.8,140.1 1013.1,138.4 1013.1,135.7 1013.1,135.0 1039.4,134.4 1039.4,133.4 1039.4,133.4 1039.4,132.6 1039.4,131.7 1065.7,130.8 1065.7,130.0 1065.7,129.5 1065.7,127.9 1092.0,128.0 1092.0,127.2 1092.0,126.7" fill="none" stroke="#56d364" stroke-width="2.5" stroke-dasharray="0.1 6" stroke-linecap="round"/><line x1="934.2" x2="934.2" y1="10" y2="166" class="grid" stroke-dasharray="4 4"><title>2026-10-02: census rules changed majority-0 -> retail-truth-1 (10.59% under retail-truth-1, 17.83% under majority-0, same objects): not progress</title></line><text x="938.2" y="22" class="axis">rules changed</text><circle cx="934.2" cy="138.2" r="4" fill="none" stroke="#56d364"><title>2026-10-02: linking under majority-0, 17.83% under majority-0</title></circle><circle cx="855.3" cy="154.3" r="4" fill="#56d364"><title>2026-09-29: linking 7.50% (majority-0)</title></circle><circle cx="881.6" cy="152.2" r="4" fill="#56d364"><title>2026-09-30: linking 8.84% (majority-0)</title></circle><circle cx="881.6" cy="150.4" r="4" fill="#56d364"><title>2026-09-30: linking 10.02% (majority-0)</title></circle><circle cx="881.6" cy="149.4" r="4" fill="#56d364"><title>2026-09-30: linking 10.62% (majority-0)</title></circle><circle cx="881.6" cy="149.0" r="4" fill="#56d364"><title>2026-09-30: linking 10.91% (majority-0)</title></circle><circle cx="881.6" cy="148.8" r="4" fill="#56d364"><title>2026-09-30: linking 11.02% (majority-0)</title></circle><circle cx="907.9" cy="148.6" r="4" fill="#56d364"><title>2026-10-01: linking 11.18% (majority-0)</title></circle><circle cx="907.9" cy="147.3" r="4" fill="#56d364"><title>2026-10-01: linking 12.01% (majority-0)</title></circle><circle cx="907.9" cy="146.8" r="4" fill="#56d364"><title>2026-10-01: linking 12.28% (majority-0)</title></circle><circle cx="907.9" cy="146.5" r="4" fill="#56d364"><title>2026-10-01: linking 12.53% (majority-0)</title></circle><circle cx="907.9" cy="146.4" r="4" fill="#56d364"><title>2026-10-01: linking 12.59% (majority-0)</title></circle><circle cx="907.9" cy="145.5" r="4" fill="#56d364"><title>2026-10-01: linking 13.14% (majority-0)</title></circle><circle cx="907.9" cy="145.3" r="4" fill="#56d364"><title>2026-10-01: linking 13.28% (majority-0)</title></circle><circle cx="907.9" cy="144.7" r="4" fill="#56d364"><title>2026-10-01: linking 13.63% (majority-0)</title></circle><circle cx="907.9" cy="144.6" r="4" fill="#56d364"><title>2026-10-01: linking 13.74% (majority-0)</title></circle><circle cx="907.9" cy="143.9" r="4" fill="#56d364"><title>2026-10-01: linking 14.20% (majority-0)</title></circle><circle cx="907.9" cy="143.5" r="4" fill="#56d364"><title>2026-10-01: linking 14.44% (majority-0)</title></circle><circle cx="907.9" cy="143.2" r="4" fill="#56d364"><title>2026-10-01: linking 14.64% (majority-0)</title></circle><circle cx="907.9" cy="142.8" r="4" fill="#56d364"><title>2026-10-01: linking 14.87% (majority-0)</title></circle><circle cx="907.9" cy="142.2" r="4" fill="#56d364"><title>2026-10-01: linking 15.23% (majority-0)</title></circle><circle cx="907.9" cy="142.1" r="4" fill="#56d364"><title>2026-10-01: linking 15.33% (majority-0)</title></circle><circle cx="934.2" cy="139.9" r="4" fill="#56d364"><title>2026-10-02: linking 16.72% (majority-0)</title></circle><circle cx="934.2" cy="149.5" r="4" fill="#56d364"><title>2026-10-02: linking 10.59% (retail-truth-1)</title></circle><circle cx="934.2" cy="145.4" r="4" fill="#56d364"><title>2026-10-02: linking 13.23% (retail-truth-1)</title></circle><circle cx="934.2" cy="144.4" r="4" fill="#56d364"><title>2026-10-02: linking 13.86% (retail-truth-1)</title></circle><circle cx="960.5" cy="143.0" r="4" fill="#56d364"><title>2026-10-03: linking 14.71% (retail-truth-1)</title></circle><circle cx="960.5" cy="142.5" r="4" fill="#56d364"><title>2026-10-03: linking 15.06% (retail-truth-1)</title></circle><circle cx="960.5" cy="142.2" r="4" fill="#56d364"><title>2026-10-03: linking 15.24% (retail-truth-1)</title></circle><circle cx="986.8" cy="142.0" r="4" fill="#56d364"><title>2026-10-04: linking 15.38% (retail-truth-1)</title></circle><circle cx="986.8" cy="141.3" r="4" fill="#56d364"><title>2026-10-04: linking 15.84% (retail-truth-1)</title></circle><circle cx="986.8" cy="140.8" r="4" fill="#56d364"><title>2026-10-04: linking 16.15% (retail-truth-1)</title></circle><circle cx="986.8" cy="140.2" r="4" fill="#56d364"><title>2026-10-04: linking 16.52% (retail-truth-1)</title></circle><circle cx="986.8" cy="140.2" r="4" fill="#56d364"><title>2026-10-04: linking 16.53% (retail-truth-1)</title></circle><circle cx="986.8" cy="140.1" r="4" fill="#56d364"><title>2026-10-04: linking 16.58% (retail-truth-1)</title></circle><circle cx="1013.1" cy="138.4" r="4" fill="#56d364"><title>2026-10-05: linking 17.70% (retail-truth-1)</title></circle><circle cx="1013.1" cy="135.7" r="4" fill="#56d364"><title>2026-10-05: linking 19.45% (retail-truth-1)</title></circle><circle cx="1013.1" cy="135.0" r="4" fill="#56d364"><title>2026-10-05: linking 19.84% (retail-truth-1)</title></circle><circle cx="1039.4" cy="134.4" r="4" fill="#56d364"><title>2026-10-06: linking 20.27% (retail-truth-1)</title></circle><circle cx="1039.4" cy="133.4" r="4" fill="#56d364"><title>2026-10-06: linking 20.91% (retail-truth-1)</title></circle><circle cx="1039.4" cy="133.4" r="4" fill="#56d364"><title>2026-10-06: linking 20.91% (retail-truth-1)</title></circle><circle cx="1039.4" cy="132.6" r="4" fill="#56d364"><title>2026-10-06: linking 21.41% (retail-truth-1)</title></circle><circle cx="1039.4" cy="131.7" r="4" fill="#56d364"><title>2026-10-06: linking 22.00% (retail-truth-1)</title></circle><circle cx="1065.7" cy="130.8" r="4" fill="#56d364"><title>2026-10-07: linking 22.59% (retail-truth-1)</title></circle><circle cx="1065.7" cy="130.0" r="4" fill="#56d364"><title>2026-10-07: linking 23.07% (retail-truth-1)</title></circle><circle cx="1065.7" cy="129.5" r="4" fill="#56d364"><title>2026-10-07: linking 23.38% (retail-truth-1)</title></circle><circle cx="1065.7" cy="127.9" r="4" fill="#56d364"><title>2026-10-07: linking 24.45% (retail-truth-1)</title></circle><circle cx="1092.0" cy="128.0" r="4" fill="#56d364"><title>2026-10-08: linking 24.36% (retail-truth-1)</title></circle><circle cx="1092.0" cy="127.2" r="4" fill="#56d364"><title>2026-10-08: linking 24.88% (retail-truth-1)</title></circle><circle cx="1092.0" cy="126.7" r="4" fill="#56d364"><title>2026-10-08: linking 25.18% (retail-truth-1)</title></circle><circle cx="40.0" cy="165.0" r="7" class="hit"><title>2026-08-29: byte-matched 0.66%</title></circle><circle cx="66.3" cy="164.0" r="7" class="hit"><title>2026-08-30: byte-matched 1.27%</title></circle><circle cx="92.6" cy="163.7" r="7" class="hit"><title>2026-08-31: byte-matched 1.47%</title></circle><circle cx="118.9" cy="163.6" r="7" class="hit"><title>2026-09-01: byte-matched 1.54%</title></circle><circle cx="145.2" cy="163.5" r="7" class="hit"><title>2026-09-02: byte-matched 1.60%</title></circle><circle cx="171.5" cy="162.4" r="7" class="hit"><title>2026-09-03: byte-matched 2.30%</title></circle><circle cx="197.8" cy="161.8" r="7" class="hit"><title>2026-09-04: byte-matched 2.70%</title></circle><circle cx="224.1" cy="161.2" r="7" class="hit"><title>2026-09-05: byte-matched 3.08%</title></circle><circle cx="250.4" cy="160.1" r="7" class="hit"><title>2026-09-06: byte-matched 3.81%</title></circle><circle cx="276.7" cy="156.6" r="7" class="hit"><title>2026-09-07: byte-matched 6.00%</title></circle><circle cx="303.0" cy="152.9" r="7" class="hit"><title>2026-09-08: byte-matched 8.43%</title></circle><circle cx="329.3" cy="152.8" r="7" class="hit"><title>2026-09-09: byte-matched 8.46%</title></circle><circle cx="355.6" cy="152.4" r="7" class="hit"><title>2026-09-10: byte-matched 8.72%</title></circle><circle cx="381.9" cy="152.1" r="7" class="hit"><title>2026-09-11: byte-matched 8.93%</title></circle><circle cx="408.2" cy="151.7" r="7" class="hit"><title>2026-09-12: byte-matched 9.18%</title></circle><circle cx="434.5" cy="150.3" r="7" class="hit"><title>2026-09-13: byte-matched 10.04%</title></circle><circle cx="460.8" cy="148.9" r="7" class="hit"><title>2026-09-14: byte-matched 10.96%</title></circle><circle cx="487.1" cy="148.4" r="7" class="hit"><title>2026-09-15: byte-matched 11.25%</title></circle><circle cx="513.4" cy="148.3" r="7" class="hit"><title>2026-09-16: byte-matched 11.34%</title></circle><circle cx="539.7" cy="147.6" r="7" class="hit"><title>2026-09-17: byte-matched 11.79%</title></circle><circle cx="566.0" cy="144.7" r="7" class="hit"><title>2026-09-18: byte-matched 13.67%</title></circle><circle cx="592.3" cy="142.8" r="7" class="hit"><title>2026-09-19: byte-matched 14.90%</title></circle><circle cx="618.6" cy="140.8" r="7" class="hit"><title>2026-09-20: byte-matched 16.12%</title></circle><circle cx="644.9" cy="139.1" r="7" class="hit"><title>2026-09-21: byte-matched 17.23%</title></circle><circle cx="671.2" cy="136.2" r="7" class="hit"><title>2026-09-22: byte-matched 19.07%</title></circle><circle cx="697.5" cy="128.3" r="7" class="hit"><title>2026-09-23: byte-matched 24.14%</title></circle><circle cx="723.8" cy="125.7" r="7" class="hit"><title>2026-09-24: byte-matched 25.81%</title></circle><circle cx="750.1" cy="124.8" r="7" class="hit"><title>2026-09-25: byte-matched 26.39%</title></circle><circle cx="776.4" cy="123.2" r="7" class="hit"><title>2026-09-26: byte-matched 27.42%</title></circle><circle cx="802.7" cy="120.5" r="7" class="hit"><title>2026-09-27: byte-matched 29.16%</title></circle><circle cx="829.0" cy="118.5" r="7" class="hit"><title>2026-09-28: byte-matched 30.47%</title></circle><circle cx="855.3" cy="116.7" r="7" class="hit"><title>2026-09-29: byte-matched 31.60%</title></circle><circle cx="881.6" cy="113.6" r="7" class="hit"><title>2026-09-30: byte-matched 33.57%</title></circle><circle cx="907.9" cy="110.7" r="7" class="hit"><title>2026-10-01: byte-matched 35.43%</title></circle><circle cx="934.2" cy="107.3" r="7" class="hit"><title>2026-10-02: byte-matched 37.62%</title></circle><circle cx="960.5" cy="105.0" r="7" class="hit"><title>2026-10-03: byte-matched 39.12%</title></circle><circle cx="986.8" cy="100.3" r="7" class="hit"><title>2026-10-04: byte-matched 42.14%</title></circle><circle cx="1013.1" cy="88.9" r="7" class="hit"><title>2026-10-05: byte-matched 49.40%</title></circle><circle cx="1039.4" cy="84.5" r="7" class="hit"><title>2026-10-06: byte-matched 52.23%</title></circle><circle cx="1065.7" cy="75.1" r="7" class="hit"><title>2026-10-07: byte-matched 58.26%</title></circle><circle cx="1092.0" cy="67.9" r="7" class="hit"><title>2026-10-08: byte-matched 62.88%</title></circle></svg>
  </g>
</svg>
